<svg xmlns="http://www.w3.org/2000/svg" viewBox="0 0 127.5 165"><defs><style>.cls-1{fill:#282828;}.cls-2{fill:#37474f;}.cls-3{fill:#02a9f4;}</style></defs><title>Ativo 1</title><g id="Camada_2" data-name="Camada 2"><g id="Camada_1-2" data-name="Camada 1"><path class="cls-1" d="M86.67,29.91c-3,.94-2.78-5.62-4.17-8.43,0,0,19-8.93,19.22-21.48L117.5,8.17s-4.93,13.74-30.83,21.74"/><path class="cls-1" d="M95,65v0c-.23,3.46-.58,7-1,10.61C90,106,78,143.81,62.54,159.89a17.94,17.94,0,0,1-25.08,0C22,143.81,10,106,6,75.64,5.58,72,5.23,68.49,5,65l81.9,0Z"/><path class="cls-1" d="M100,43.08C100,72,87.5,80,50,80c-1.34,0-2.66,0-3.91,0C11.63,79.42,0,71,0,43.08,0,15.88,24.91,1.72,46.09.15,47.41.06,48.72,0,50,0c21.87,0,50,14.18,50,43.08"/><path class="cls-2" d="M88.75,40C88.75,24.81,71.4,12.5,50,12.5S11.25,24.81,11.25,40,28.6,67.5,50,67.5,88.75,55.19,88.75,40"/><path class="cls-3" d="M44.73,46c-1.13,3.42-5.84,4.9-10.83,3.56-.38-.11-.79-.21-1.17-.35-5.36-1.9-8.73-6.45-7.46-10.11a5.84,5.84,0,0,1,3.95-3.56,12.75,12.75,0,0,1,8.05.35C42.63,37.74,46,42.29,44.73,46"/><path class="cls-3" d="M55.27,46c1.13,3.42,5.84,4.9,10.83,3.56.38-.11.79-.21,1.17-.35,5.36-1.9,8.73-6.45,7.46-10.11a5.84,5.84,0,0,0-4-3.56,12.75,12.75,0,0,0-8.05.35C57.37,37.74,54,42.29,55.27,46"/><path class="cls-1" d="M50.85,72.5H89c6.09.36,11,14.74,11,32.5,0,14.71-3.4,27.15-8,31.14a4.89,4.89,0,0,1-3.21,1.36c-4.39,0-8.17-7.33-10-18l-28.75,0"/><path class="cls-1" d="M49.15,72.5H11C4.9,72.86,0,87.24,0,105c0,14.71,3.4,27.15,8,31.14a4.89,4.89,0,0,0,3.21,1.36c4.39,0,8.17-7.33,10-18l28.75,0"/><path class="cls-1" d="M92.5,34.3s25.57-3.49,35,13.35L112,56s.12-8.57-15.64-13.93Z"/></g></g></svg>