<svg xmlns="http://www.w3.org/2000/svg" viewBox="0 0 706.46 183"><title>Ativo 2</title><g id="Camada_2" data-name="Camada 2"><g id="Camada_1-2" data-name="Camada 1"><polygon points="91.8 182.54 68.85 118.12 33.3 182.31 31.5 182.31 0 80.42 30.6 80.42 47.92 134.11 37.12 132.51 61.2 91.84 57.37 80.42 84.15 80.42 99.67 130 93.82 130.45 118.79 80.42 149.39 80.42 93.59 182.54 91.8 182.54"/><path d="M192.81,182.54a33.91,33.91,0,0,1-18.9-5.48,43.42,43.42,0,0,1-15.18-16.68q-6-11-6-26.5a59,59,0,0,1,4-21.59,61.53,61.53,0,0,1,11.47-18.73,55.9,55.9,0,0,1,17.55-13.25,50.26,50.26,0,0,1,22.27-4.92q9.9,0,16.09,2.29a29.67,29.67,0,0,1,10,5.82,41.8,41.8,0,0,1,6.53,7.66l-2,4.8,4.95-15.54h29.25L261,180.26H229.49L232,158.55l1.8,6.86c-.3,0-1.35.88-3.15,2.62a57.36,57.36,0,0,1-7.76,6.06,54.81,54.81,0,0,1-12.6,6,49.52,49.52,0,0,1-17.44,2.4M210.59,157a22.59,22.59,0,0,0,8.66-1.71,29.37,29.37,0,0,0,8-5,32.38,32.38,0,0,0,6.75-8.33l2.92-24.45a19,19,0,0,0-4.27-8.57,21.24,21.24,0,0,0-7.88-5.48,31.79,31.79,0,0,0-23.85.8,26.72,26.72,0,0,0-8.88,7.08,28.76,28.76,0,0,0-5.07,9.25,31,31,0,0,0-1.57,9.49,30.56,30.56,0,0,0,3.15,14.28,22.56,22.56,0,0,0,8.89,9.36A25.81,25.81,0,0,0,210.59,157"/><polygon points="382.48 182.54 359.53 118.12 323.98 182.31 322.18 182.31 290.68 80.42 321.28 80.42 338.61 134.11 327.81 132.51 351.88 91.84 348.06 80.42 374.83 80.42 390.35 130 384.5 130.45 409.48 80.42 440.07 80.42 384.28 182.54 382.48 182.54"/><path d="M483.5,182.54a33.91,33.91,0,0,1-18.9-5.48,43.44,43.44,0,0,1-15.19-16.68q-6-11-6-26.5a59,59,0,0,1,4.05-21.59A61.53,61.53,0,0,1,459,93.56a55.9,55.9,0,0,1,17.55-13.25,50.3,50.3,0,0,1,22.28-4.92q9.88,0,16.08,2.29a29.57,29.57,0,0,1,10,5.82,41.8,41.8,0,0,1,6.53,7.66l-2,4.8,5-15.54h29.25l-11.92,99.84h-31.5l2.47-21.71,1.8,6.86c-.3,0-1.35.88-3.15,2.62a56.11,56.11,0,0,1-7.76,6.06,54.41,54.41,0,0,1-12.6,6,49.43,49.43,0,0,1-17.43,2.4M501.27,157a22.55,22.55,0,0,0,8.66-1.71,29.07,29.07,0,0,0,8-5,32.38,32.38,0,0,0,6.75-8.33l2.92-24.45a18.87,18.87,0,0,0-4.27-8.57,21.2,21.2,0,0,0-7.87-5.48,31.79,31.79,0,0,0-23.85.8,26.76,26.76,0,0,0-8.89,7.08,28.53,28.53,0,0,0-5.06,9.25,31.07,31.07,0,0,0-1.58,9.49,30.56,30.56,0,0,0,3.15,14.28,22.56,22.56,0,0,0,8.89,9.36A25.81,25.81,0,0,0,501.27,157"/><path d="M648.41,183q-12.37,0-20.36-4.23a41.51,41.51,0,0,1-13.39-11.08l3.38-6.85-2.48,19.42H584.07L605.89,0h31.27l-11.7,97.55,1.13-10.28a50.47,50.47,0,0,1,14.51-8.45,53.27,53.27,0,0,1,19.69-3.43,48.44,48.44,0,0,1,22.38,5.37,40.87,40.87,0,0,1,16.88,16.57q6.41,11.19,6.41,28.55a56,56,0,0,1-7.43,28A57.74,57.74,0,0,1,678.56,175q-13,8-30.15,8m-3.82-27a28.59,28.59,0,0,0,22.61-9.71,27.32,27.32,0,0,0,5.4-9.14,28.61,28.61,0,0,0,1.69-9.25,33,33,0,0,0-3.15-15.08,21.27,21.27,0,0,0-8.78-9.25,26.67,26.67,0,0,0-13.05-3.09,27.32,27.32,0,0,0-15.52,4.35,30.84,30.84,0,0,0-10.35,11.65l-2.93,23.07a34.7,34.7,0,0,0,3.83,6.74,24.36,24.36,0,0,0,5.17,5.26,21.75,21.75,0,0,0,6.64,3.31,28.73,28.73,0,0,0,8.44,1.14"/></g></g></svg>